<?xml version="1.0" standalone="no"?>
<!DOCTYPE svg PUBLIC "-//W3C//DTD SVG 20010904//EN"
 "http://www.w3.org/TR/2001/REC-SVG-20010904/DTD/svg10.dtd">
<svg version="1.0" xmlns="http://www.w3.org/2000/svg"
 width="1080.000000pt" height="1080.000000pt" viewBox="0 0 1080.000000 1080.000000"
 preserveAspectRatio="xMidYMid meet">
<metadata>
Created by potrace 1.14, written by Peter Selinger 2001-2017
</metadata>
<g transform="translate(0.000000,1080.000000) scale(0.100000,-0.100000)"
fill="#000000" stroke="none">
<path d="M5070 10389 c-1498 -101 -2861 -862 -3741 -2089 -600 -836 -929
-1864 -929 -2900 0 -1430 616 -2795 1690 -3744 772 -681 1705 -1100 2725
-1220 1232 -146 2483 174 3485 893 378 271 737 612 1021 971 577 729 934 1589
1043 2515 146 1232 -174 2483 -893 3485 -528 736 -1240 1316 -2062 1678 -721
318 -1549 464 -2339 411z m2600 -3435 c223 -120 408 -222 412 -228 4 -6 8
-115 8 -242 0 -218 -1 -232 -20 -249 -17 -15 -20 -31 -20 -99 l0 -81 -404
-212 -405 -213 -413 0 -413 -1 -515 -278 -515 -278 -5 -119 -5 -119 -190 -102
c-104 -56 -195 -102 -201 -103 -6 0 -52 23 -103 50 l-92 50 -197 -106 c-108
-58 -199 -108 -202 -111 -3 -3 0 -7 5 -10 6 -2 48 -25 93 -52 l84 -48 -97 -52
-97 -52 -102 55 -103 55 -6 -216 c-4 -119 -8 -217 -9 -218 -2 -1 -136 -72
-299 -158 l-297 -156 -406 217 -406 217 0 81 c0 72 -2 83 -21 96 -15 10 -20
20 -15 34 4 14 423 243 1439 787 1633 874 1626 870 1627 877 0 3 -28 21 -62
39 -121 65 -118 62 -118 147 0 57 -4 76 -15 80 -13 5 -15 42 -15 245 l0 240
37 22 c21 12 207 113 413 224 l375 201 435 1 435 1 405 -216z"/>
<path d="M6028 6892 l-387 -207 -1 -200 0 -200 183 -98 c219 -116 221 -118
213 -143 -8 -26 -165 -112 -1823 -999 -761 -407 -1383 -743 -1383 -746 0 -11
708 -401 722 -397 8 1 98 48 201 103 l187 99 0 206 c0 113 4 210 8 216 4 7
563 309 1242 673 l1236 661 396 0 395 0 399 214 399 213 3 200 2 199 -386 207
-387 207 -416 -1 -416 0 -387 -207z m1209 -163 c224 -121 415 -227 423 -235
13 -12 12 -16 -5 -33 -28 -25 -810 -441 -830 -441 -9 0 -203 100 -431 222
-339 181 -414 225 -412 240 2 14 123 83 423 243 231 124 421 225 422 225 1 0
185 -99 410 -221z"/>
<path d="M6543 6524 c-150 -80 -271 -150 -268 -154 7 -11 537 -293 550 -293
13 0 544 283 550 293 5 7 -535 300 -552 300 -4 0 -131 -66 -280 -146z"/>
</g>
</svg>
